# xmcd CD database file
#
# Track frame offsets:
#	150
#	21007
#	36696
#	57515
#	84423
#
# Disc length: 1987 seconds
#
# Revision: 0
# Processed by: cddbd v1.5.1PL2 Copyright (c) Steve Scherf et al.
# Submitted via: CDex 1.51
#
DISCID=3d07c105
DTITLE=FUNKY MONKEY BABYS - 恋の片道切符
DYEAR=2006
DGENRE=JPop
TTITLE0=恋の片道切符
TTITLE1=GO!GO!ライダー
TTITLE2=恋の片道切符(instrumental)
TTITLE3=GO!GO!ライダー(instrumental)
TTITLE4=データ
EXTD=YEAR: 2006
EXTT0=
EXTT1=
EXTT2=
EXTT3=
EXTT4=
PLAYORDER=
